<svg xmlns="http://www.w3.org/2000/svg" xmlns:svg="http://www.w3.org/2000/svg" id="svg2" width="1600" height="1600" version="1.1" viewBox="0 0 1600 1600"><title id="title4198">Fresh Ubuntu Search Results</title><metadata id="metadata7"/><g id="layer1" transform="translate(0,547.63778)"><g id="g4481" transform="matrix(7.3845228,0,0,7.3845228,-3790.4221,1169.0543)"><circle id="circle4464" cx="621.627" cy="-124.137" r="108.335" fill="#38abc8" fill-opacity="1" stroke="none" stroke-dasharray="none" stroke-linejoin="round" stroke-miterlimit="4" stroke-opacity="1" stroke-width="25" opacity="1"/><path id="path4391" fill="#000" fill-opacity="1" stroke="none" stroke-dasharray="none" stroke-linejoin="round" stroke-miterlimit="4" stroke-opacity="1" stroke-width="25" d="M 674.55273,578.20508 641,618.6543 l -79.37695,30.10547 28.94336,50.13476 a 108.33469,108.33469 0 0 0 31.06054,4.59375 108.33469,108.33469 0 0 0 93.84961,-54.40039 l -40.92383,-70.88281 z" opacity=".479" transform="translate(0,-719.29134)"/><g id="g4448" transform="translate(6.5397582,2.5598651)"><path id="path4214" fill="#fff" fill-opacity=".996" stroke="none" stroke-dasharray="none" stroke-linejoin="round" stroke-miterlimit="4" stroke-opacity="1" stroke-width="40" d="m 615.08864,-218.59365 c -0.40809,76.95493 -71.9474,75.87867 -64.75471,127.173176 4.94813,35.287598 28.99185,56.619906 64.75471,56.620468 l 0,0 c 35.76346,-10e-6 59.80741,-21.333401 64.75549,-56.621497 7.19244,-51.294497 -64.75549,-127.172147 -64.75549,-127.172147 z" opacity="1"/><path id="path4430" fill="#38abc8" fill-opacity="1" stroke="none" stroke-dasharray="none" stroke-linejoin="round" stroke-miterlimit="4" stroke-opacity="1" stroke-width="40" d="m 666.24609,-122.33822 c 3.38778,25.34692 -8.32974,53.72667 -32.36328,64.76563 -15.58199,7.62688 -33.81875,8.43961 -50.49414,4.30273 14.5261,9.45205 32.46882,10.4966 48.97656,6.27149 18.5927,-4.49527 32.96176,-20.81329 36.44727,-39.27149 2.56425,-12.03587 1.33096,-24.77241 -2.56641,-36.06836 z" opacity="1"/></g></g></g></svg>