<svg xmlns="http://www.w3.org/2000/svg" xmlns:svg="http://www.w3.org/2000/svg" id="svg4908" width="920" height="680" version="1.1" viewBox="0 0 920 680"><metadata id="metadata4913"/><g id="layer1" transform="translate(0,-372.36216)"><rect id="rect6075" width="920" height="680" x="0" y="372.362" fill="#16677b" fill-opacity="1" stroke="none" stroke-dasharray="none" stroke-linejoin="miter" stroke-miterlimit="4" stroke-opacity="1" stroke-width="15" opacity="1"/><g id="layer1-5" transform="matrix(2.0909091,0,0,2.0909091,2.9904741e-5,-1195.3042)"><rect id="rect4759" width="440" height="280" x="0" y="772.362" fill="#16677b" fill-opacity="1" stroke="none" stroke-dasharray="none" stroke-linejoin="miter" stroke-miterlimit="4" stroke-opacity="1" stroke-width="6.577" opacity="1" ry="2"/><g id="g4821" transform="matrix(1.2291255,0,0,1.2291255,-50.134534,-211.7299)"><g id="g4799" transform="matrix(0.58835022,0,0,0.58835022,51.056409,371.14971)"><path id="path4790" fill="#fff" fill-opacity="1" fill-rule="nonzero" stroke="none" stroke-dasharray="none" stroke-dashoffset="0" stroke-linecap="butt" stroke-linejoin="round" stroke-miterlimit="4" stroke-opacity="1" stroke-width="15" d="m 96.226562,66.248047 c -46.846217,0 -84.984375,38.136203 -84.984374,84.982423 0,46.84621 38.138157,84.98437 84.984374,84.98437 46.846218,0 84.982418,-38.13816 84.982418,-84.98437 0,-46.84622 -38.1362,-84.982423 -84.982418,-84.982423 z" baseline-shift="baseline" clip-rule="nonzero" color="#000" color-interpolation="sRGB" color-interpolation-filters="linearRGB" color-rendering="auto" direction="ltr" display="inline" enable-background="accumulate" font-family="sans-serif" font-size="medium" font-stretch="normal" font-style="normal" font-variant="normal" font-weight="normal" image-rendering="auto" letter-spacing="normal" opacity="1" overflow="visible" shape-rendering="auto" text-anchor="start" text-decoration="none" text-rendering="auto" transform="translate(-1.5258789e-5,772.36219)" visibility="visible" word-spacing="normal" writing-mode="lr-tb" style="line-height:normal;text-indent:0;text-align:start;text-decoration-line:none;text-decoration-style:solid;text-decoration-color:#000;text-transform:none;block-progression:tb;white-space:normal;isolation:auto;mix-blend-mode:normal;solid-color:#000;solid-opacity:1"/><g id="g4481" transform="matrix(0.71522277,0,0,0.71522277,-348.37629,1012.3779)"><circle id="circle4464" cx="621.627" cy="-124.137" r="108.335" fill="#38abc8" fill-opacity="1" stroke="none" stroke-dasharray="none" stroke-linejoin="round" stroke-miterlimit="4" stroke-opacity="1" stroke-width="25" opacity="1"/><path id="path4391" fill="#000" fill-opacity="1" stroke="none" stroke-dasharray="none" stroke-linejoin="round" stroke-miterlimit="4" stroke-opacity="1" stroke-width="25" d="M 674.55273,578.20508 641,618.6543 l -79.37695,30.10547 28.94336,50.13476 a 108.33469,108.33469 0 0 0 31.06054,4.59375 108.33469,108.33469 0 0 0 93.84961,-54.40039 l -40.92383,-70.88281 z" opacity=".479" transform="translate(0,-719.29134)"/><g id="g4448" transform="translate(6.5397582,2.5598651)"><path id="path4214" fill="#fff" fill-opacity=".996" stroke="none" stroke-dasharray="none" stroke-linejoin="round" stroke-miterlimit="4" stroke-opacity="1" stroke-width="40" d="m 615.08864,-218.59365 c -0.40809,76.95493 -71.9474,75.87867 -64.75471,127.173176 4.94813,35.287598 28.99185,56.619906 64.75471,56.620468 l 0,0 c 35.76346,-10e-6 59.80741,-21.333401 64.75549,-56.621497 7.19244,-51.294497 -64.75549,-127.172147 -64.75549,-127.172147 z" opacity="1"/><path id="path4430" fill="#38abc8" fill-opacity="1" stroke="none" stroke-dasharray="none" stroke-linejoin="round" stroke-miterlimit="4" stroke-opacity="1" stroke-width="40" d="m 666.24609,-122.33822 c 3.38778,25.34692 -8.32974,53.72667 -32.36328,64.76563 -15.58199,7.62688 -33.81875,8.43961 -50.49414,4.30273 14.5261,9.45205 32.46882,10.4966 48.97656,6.27149 18.5927,-4.49527 32.96176,-20.81329 36.44727,-39.27149 2.56425,-12.03587 1.33096,-24.77241 -2.56641,-36.06836 z" opacity="1"/></g></g></g><g id="g4753" fill="#fff" transform="matrix(0.79370896,0,0,0.79370896,46.602968,194.90812)"><text id="text4745" x="148.334" y="934.862" fill="#fff" fill-opacity="1" stroke="none" stroke-linecap="butt" stroke-linejoin="miter" stroke-opacity="1" stroke-width="1" font-family="Ubuntu" font-size="117.5" font-stretch="normal" font-style="normal" font-variant="normal" font-weight="normal" letter-spacing="-3.08" text-anchor="start" word-spacing="0" writing-mode="lr-tb" xml:space="preserve" style="line-height:125%;-inkscape-font-specification:'Ubuntu, Normal';text-align:start"><tspan id="tspan4747" x="148.334" y="934.862" fill="#fff" font-family="Ubuntu" font-size="117.5" font-stretch="normal" font-style="normal" font-variant="normal" font-weight="normal" letter-spacing="-3" text-anchor="start" writing-mode="lr-tb" style="line-height:125%;-inkscape-font-specification:'Ubuntu, Normal';text-align:start">Fresh</tspan></text><text id="text4749" x="153.929" y="969.148" fill="#fff" fill-opacity="1" stroke="none" stroke-linecap="butt" stroke-linejoin="miter" stroke-opacity="1" stroke-width="1" font-family="Ubuntu Condensed" font-size="35" font-stretch="normal" font-style="normal" font-variant="normal" font-weight="normal" letter-spacing="0" text-anchor="start" word-spacing="0" writing-mode="lr-tb" xml:space="preserve" style="line-height:125%;-inkscape-font-specification:'Ubuntu Condensed, Normal';text-align:start"><tspan id="tspan4751" x="153.929" y="969.148" fill="#fff" font-family="Ubuntu Condensed" font-size="35" font-stretch="normal" font-style="normal" font-variant="normal" font-weight="normal" letter-spacing="-1" text-anchor="start" writing-mode="lr-tb" style="line-height:125%;-inkscape-font-specification:'Ubuntu Condensed, Normal';text-align:start">Ubuntu Search Results</tspan></text></g></g></g></g></svg>